<?xml version="1.0" encoding="UTF-8" standalone="no"?>
<!DOCTYPE svg PUBLIC "-//W3C//DTD SVG 1.1//EN" "http://www.w3.org/Graphics/SVG/1.1/DTD/svg11.dtd">
<svg version="1.1" xmlns="http://www.w3.org/2000/svg" xmlns:xlink="http://www.w3.org/1999/xlink" preserveAspectRatio="xMidYMid meet" viewBox="0 0 400 400" width="400" height="400"><defs><path d="M216.38 0.66L224.43 1.48L232.4 2.62L240.25 4.07L248 5.82L255.64 7.87L263.15 10.21L270.53 12.84L277.77 15.74L284.88 18.92L291.83 22.36L298.63 26.06L305.27 30.01L311.74 34.2L318.04 38.64L324.16 43.31L330.08 48.2L335.82 53.32L341.35 58.65L346.68 64.18L351.8 69.91L356.69 75.84L361.36 81.96L365.8 88.26L369.99 94.73L373.94 101.37L377.64 108.17L381.08 115.12L384.26 122.23L387.16 129.47L389.79 136.85L392.13 144.36L394.18 152L395.93 159.74L397.38 167.6L398.52 175.56L399.34 183.62L399.83 191.77L400 200L399.83 208.23L399.34 216.38L398.52 224.44L397.38 232.4L395.93 240.26L394.18 248L392.13 255.64L389.79 263.15L387.16 270.53L384.26 277.77L381.08 284.88L377.64 291.83L373.94 298.63L369.99 305.27L365.8 311.74L361.36 318.04L356.69 324.16L351.8 330.09L346.68 335.82L341.35 341.36L335.82 346.68L330.08 351.8L324.16 356.69L318.04 361.36L311.74 365.8L305.27 369.99L298.63 373.94L291.83 377.64L284.88 381.08L277.77 384.26L270.53 387.16L263.15 389.79L255.64 392.13L248 394.18L240.25 395.93L232.4 397.38L224.43 398.52L216.38 399.34L208.23 399.83L200 400L191.77 399.83L183.62 399.34L175.56 398.52L167.6 397.38L159.74 395.93L151.99 394.18L144.36 392.13L136.85 389.79L129.47 387.16L122.22 384.26L115.12 381.08L108.17 377.64L101.37 373.94L94.73 369.99L88.26 365.8L81.96 361.36L75.84 356.69L69.91 351.8L64.18 346.68L58.64 341.36L53.32 335.82L48.2 330.09L43.31 324.16L38.64 318.04L34.2 311.74L30.01 305.27L26.06 298.63L22.36 291.83L18.92 284.88L15.74 277.77L12.84 270.53L10.21 263.15L7.87 255.64L5.82 248L4.07 240.26L2.62 232.4L1.48 224.44L0.66 216.38L0.17 208.23L0 200L0.17 191.77L0.66 183.62L1.48 175.56L2.62 167.6L4.07 159.74L5.82 152L7.87 144.36L10.21 136.85L12.84 129.47L15.74 122.23L18.92 115.12L22.36 108.17L26.06 101.37L30.01 94.73L34.2 88.26L38.64 81.96L43.31 75.84L48.2 69.91L53.32 64.18L58.64 58.65L64.18 53.32L69.91 48.2L75.84 43.31L81.96 38.64L88.26 34.2L94.73 30.01L101.37 26.06L108.17 22.36L115.12 18.92L122.22 15.74L129.47 12.84L136.85 10.21L144.36 7.87L151.99 5.82L159.74 4.07L167.6 2.62L175.56 1.48L183.62 0.66L191.77 0.17L200 0L208.23 0.17L216.38 0.66ZM185.77 26.81L178.77 27.52L171.85 28.51L165.02 29.77L158.29 31.29L151.66 33.07L145.13 35.1L138.72 37.38L132.43 39.91L126.25 42.67L120.21 45.65L114.3 48.87L108.53 52.3L102.91 55.95L97.44 59.8L92.13 63.86L86.98 68.11L81.99 72.55L77.18 77.18L72.56 81.99L68.11 86.98L63.86 92.13L59.8 97.44L55.95 102.91L52.3 108.53L48.87 114.3L45.66 120.21L42.67 126.25L39.91 132.43L37.39 138.72L35.1 145.13L33.07 151.66L31.29 158.29L29.77 165.02L28.51 171.85L27.52 178.77L26.81 185.77L26.38 192.85L26.23 200L26.38 207.15L26.81 214.23L27.52 221.23L28.51 228.15L29.77 234.98L31.29 241.71L33.07 248.34L35.1 254.87L37.39 261.28L39.91 267.57L42.67 273.75L45.66 279.79L48.87 285.7L52.3 291.47L55.95 297.09L59.8 302.56L63.86 307.87L68.11 313.02L72.56 318.01L77.18 322.82L81.99 327.45L86.98 331.89L92.13 336.14L97.44 340.2L102.91 344.05L108.53 347.7L114.3 351.13L120.21 354.35L126.25 357.33L132.43 360.09L138.72 362.62L145.13 364.9L151.66 366.93L158.29 368.71L165.02 370.23L171.85 371.49L178.77 372.48L185.77 373.19L192.85 373.62L200 373.77L207.15 373.62L214.23 373.19L221.23 372.48L228.15 371.49L234.98 370.23L241.71 368.71L248.34 366.93L254.87 364.9L261.28 362.62L267.57 360.09L273.75 357.33L279.79 354.34L285.7 351.13L291.47 347.7L297.09 344.05L302.56 340.2L307.87 336.14L313.03 331.89L318.01 327.45L322.82 322.82L327.45 318.01L331.89 313.02L336.14 307.87L340.2 302.56L344.05 297.09L347.7 291.47L351.13 285.7L354.35 279.79L357.33 273.75L360.09 267.57L362.62 261.28L364.9 254.87L366.93 248.34L368.71 241.71L370.23 234.98L371.49 228.15L372.48 221.23L373.19 214.23L373.62 207.15L373.77 200L373.62 192.85L373.19 185.77L372.48 178.77L371.49 171.85L370.23 165.02L368.71 158.29L366.93 151.66L364.9 145.13L362.61 138.72L360.09 132.43L357.33 126.25L354.34 120.21L351.13 114.3L347.7 108.53L344.05 102.91L340.2 97.44L336.14 92.13L331.89 86.98L327.45 81.99L322.82 77.18L318.01 72.55L313.03 68.11L307.87 63.86L302.56 59.8L297.09 55.95L291.47 52.3L285.7 48.87L279.79 45.65L273.75 42.67L267.57 39.91L261.28 37.38L254.87 35.1L248.34 33.07L241.71 31.29L234.98 29.77L228.15 28.51L221.23 27.52L214.23 26.81L207.15 26.38L200 26.23L192.85 26.38L185.77 26.81Z" id="a12N2UswVw"></path><path d="M223.01 109.85C214.92 117.94 150.22 182.64 142.14 190.72C139.68 193.18 138.29 196.52 138.29 200C138.29 203.48 139.68 206.81 142.14 209.27C150.22 217.36 214.92 282.06 223.01 290.14C225.57 292.71 228.93 293.99 232.29 293.99C235.64 293.99 239 292.71 241.56 290.14C246.68 285.02 246.68 276.72 241.56 271.6C236.78 266.83 212.92 242.96 169.96 200C212.92 157.04 236.78 133.17 241.56 128.4C246.68 123.28 246.68 114.97 241.56 109.85C236.44 104.73 228.13 104.73 223.01 109.85Z" id="c1eUO1kmUc"></path></defs><g><g><g><use xlink:href="#a12N2UswVw" opacity="1" fill="#d2deff" fill-opacity="1"></use><g><use xlink:href="#a12N2UswVw" opacity="1" fill-opacity="0" stroke="#000000" stroke-width="1" stroke-opacity="0"></use></g></g><g><use xlink:href="#c1eUO1kmUc" opacity="1" fill="#d2deff" fill-opacity="1"></use><g><use xlink:href="#c1eUO1kmUc" opacity="1" fill-opacity="0" stroke="#000000" stroke-width="1" stroke-opacity="0"></use></g></g></g></g></svg>