<?xml version="1.0" encoding="UTF-8" standalone="no"?>
<!DOCTYPE svg PUBLIC "-//W3C//DTD SVG 1.1//EN" "http://www.w3.org/Graphics/SVG/1.1/DTD/svg11.dtd">
<svg version="1.1" xmlns="http://www.w3.org/2000/svg" xmlns:xlink="http://www.w3.org/1999/xlink" preserveAspectRatio="xMidYMid meet" viewBox="0 0 640 640" width="640" height="640"><defs><path d="M40.21 0.19L42.32 0.49L44.45 0.93L46.6 1.49L48.76 2.17L50.93 2.97L53.1 3.86L55.28 4.85L57.45 5.92L59.62 7.08L61.78 8.3L63.93 9.59L66.06 10.94L68.16 12.34L70.24 13.77L72.3 15.24L74.31 16.74L76.3 18.25L78.24 19.78L80.13 21.31L81.98 22.83L83.77 24.34L85.51 25.83L87.19 27.29L88.8 28.72L90.35 30.1L91.82 31.43L93.21 32.7L94.53 33.91L95.76 35.04L96.91 36.1L98.42 37.52L99.92 38.94L101.41 40.38L102.9 41.81L104.38 43.25L105.86 44.7L107.33 46.15L108.79 47.6L110.25 49.06L113.15 51.98L114.59 53.45L116.02 54.92L118.88 57.88L120.29 59.37L121.71 60.85L123.12 62.34L127.32 66.84L128.71 68.35L130.09 69.85L131.48 71.37L132.85 72.88L134.23 74.4L135.6 75.92L136.96 77.45L138.33 78.97L139.68 80.5L141.04 82.04L142.39 83.57L145.09 86.65L146.43 88.2L147.77 89.74L149.11 91.29L150.44 92.85L151.77 94.4L153.1 95.96L155.5 93.3L157.92 90.66L159.14 89.34L160.37 88.03L162.85 85.41L164.09 84.11L165.35 82.8L166.61 81.51L167.87 80.21L170.43 77.63L171.71 76.35L173 75.07L174.3 73.8L175.6 72.52L178.22 70L179.54 68.74L182.2 66.24L183.54 64.99L184.88 63.76L186.23 62.52L187.58 61.3L188.94 60.07L190.3 58.86L193.04 56.44L194.42 55.24L197.2 52.86L198.59 51.68L199.99 50.5L201.39 49.33L202.8 48.17L204.22 47.02L205.63 45.87L207.02 44.77L208.41 43.66L209.83 42.55L211.26 41.45L212.7 40.34L214.16 39.25L215.63 38.17L217.12 37.1L218.62 36.04L220.13 35.01L221.66 33.99L223.2 33L224.75 32.04L226.32 31.11L227.89 30.21L229.48 29.35L231.08 28.53L232.69 27.75L234.31 27.01L235.95 26.32L237.59 25.68L239.24 25.1L240.9 24.57L242.58 24.1L244.26 23.69L245.95 23.35L247.65 23.07L249.35 22.87L251.07 22.73L252.79 22.68L254.52 22.7L256.26 22.8L258 22.99L259.75 23.27L261.51 23.64L263.27 24.1L265.04 24.66L266.82 25.31L268.6 26.07L270.38 26.93L272.01 27.84L273.5 28.82L274.86 29.86L276.1 30.96L277.21 32.13L278.21 33.35L279.09 34.62L279.86 35.94L280.52 37.3L281.07 38.71L281.52 40.15L281.88 41.63L282.15 43.14L282.32 44.68L282.41 46.24L282.41 47.82L282.34 49.41L282.19 51.02L281.97 52.64L281.68 54.27L281.33 55.89L280.92 57.52L280.45 59.14L279.92 60.75L279.35 62.35L278.73 63.94L278.07 65.5L277.38 67.05L276.64 68.57L275.88 70.05L275.09 71.51L274.27 72.93L273.44 74.3L272.58 75.64L271.72 76.92L270.84 78.16L269.96 79.34L269.08 80.46L268.2 81.52L267.33 82.52L265.72 84.35L264.12 86.18L262.51 88.02L260.9 89.85L259.29 91.68L257.67 93.51L256.06 95.35L252.82 99.01L251.21 100.84L249.59 102.68L244.73 108.17L243.11 110.01L241.5 111.84L238.26 115.5L236.65 117.33L235.03 119.17L233.42 121L231.8 122.83L230.19 124.66L228.58 126.5L226.97 128.33L225.37 130.16L223.76 131.99L222.16 133.83L220.56 135.66L218.97 137.49L217.37 139.32L215.78 141.16L214.2 142.99L212.61 144.82L211.03 146.65L209.46 148.49L207.88 150.32L206.31 152.15L204.75 153.98L203.19 155.82L203.55 156.18L203.73 156.37L203.91 156.55L204.08 156.73L204.25 156.92L204.59 157.28L204.76 157.47L204.93 157.65L205.09 157.83L205.26 158.02L205.58 158.38L205.75 158.56L205.91 158.75L206.23 159.11L206.39 159.3L206.71 159.66L206.87 159.85L207.19 160.21L207.35 160.4L207.52 160.58L207.68 160.76L207.84 160.95L208.01 161.13L208.17 161.31L208.34 161.5L208.68 161.86L208.85 162.05L209.19 162.41L209.37 162.6L209.73 162.96L209.91 163.15L211.57 164.97L213.25 166.77L214.94 168.56L216.66 170.32L218.39 172.07L220.14 173.81L221.9 175.53L223.67 177.24L225.45 178.94L227.25 180.62L229.06 182.3L230.87 183.96L232.69 185.62L234.52 187.28L236.35 188.93L240.03 192.21L241.88 193.85L243.72 195.49L245.57 197.12L249.25 200.4L251.09 202.05L252.92 203.69L254.75 205.35L256.57 207.01L260.19 210.35L261.98 212.04L263.77 213.74L265.54 215.45L267.3 217.17L269.04 218.91L270.77 220.66L272.48 222.43L274.18 224.22L275.86 226.02L277.51 227.85L279.15 229.69L280.76 231.56L281.56 232.46L282.39 233.41L283.25 234.4L284.14 235.45L285.04 236.54L285.96 237.67L286.89 238.84L287.82 240.05L288.75 241.29L289.68 242.56L290.59 243.86L291.49 245.19L292.38 246.53L293.23 247.9L294.06 249.29L294.85 250.68L295.6 252.1L296.3 253.52L296.96 254.94L297.56 256.37L298.1 257.8L298.58 259.23L298.99 260.66L299.32 262.08L299.58 263.49L299.75 264.89L299.83 266.27L299.82 267.63L299.71 268.98L299.49 270.3L299.17 271.59L298.73 272.86L298.17 274.1L297.49 275.3L296.68 276.46L295.74 277.59L294.66 278.67L293.43 279.71L292.06 280.7L290.54 281.65L288.83 282.59L287.11 283.41L285.37 284.12L283.61 284.71L281.84 285.19L280.05 285.56L278.25 285.83L276.44 286L274.63 286.07L272.8 286.05L270.97 285.95L269.14 285.76L267.3 285.49L265.47 285.14L263.63 284.72L261.79 284.23L259.96 283.67L258.13 283.05L256.31 282.38L254.5 281.65L252.69 280.87L250.9 280.04L249.12 279.17L247.35 278.26L245.6 277.31L243.86 276.34L242.14 275.34L240.44 274.31L238.76 273.26L237.11 272.2L235.48 271.12L233.87 270.04L232.29 268.94L230.74 267.85L229.22 266.76L227.73 265.68L226.28 264.61L224.86 263.55L223.47 262.51L222.13 261.49L220.48 260.25L218.85 259L217.23 257.74L215.62 256.47L214.02 255.19L212.43 253.91L210.85 252.61L209.28 251.31L207.72 250L206.17 248.68L203.09 246.02L201.57 244.68L200.05 243.33L198.55 241.97L197.05 240.6L195.56 239.23L194.07 237.85L191.13 235.07L189.66 233.67L186.76 230.85L185.31 229.43L182.45 226.57L181.02 225.13L178.18 222.23L176.77 220.77L175.37 219.31L173.96 217.84L172.56 216.37L171.17 214.89L168.39 211.91L167.01 210.42L165.63 208.92L164.25 207.41L162.88 205.9L161.09 208.24L159.3 210.59L157.5 212.94L155.71 215.29L153.9 217.65L152.1 220.01L150.29 222.36L146.65 227.08L144.82 229.43L142.98 231.78L141.14 234.12L139.29 236.46L137.43 238.79L135.56 241.11L131.8 245.73L129.9 248.02L127.99 250.29L126.07 252.56L124.14 254.8L122.2 257.04L120.25 259.25L118.28 261.45L116.3 263.63L114.31 265.79L112.3 267.92L110.27 270.04L108.24 272.13L106.18 274.19L104.11 276.23L102.03 278.25L99.92 280.23L97.8 282.19L95.67 284.11L93.51 286.01L91.33 287.87L89.14 289.7L86.92 291.49L84.69 293.25L83.26 294.39L81.81 295.52L80.33 296.62L78.84 297.71L77.33 298.78L75.8 299.82L74.25 300.83L72.69 301.81L71.11 302.75L69.52 303.66L67.92 304.53L66.31 305.36L64.69 306.15L63.06 306.88L61.42 307.56L59.78 308.19L58.13 308.77L56.47 309.28L54.82 309.74L53.16 310.13L51.5 310.45L49.83 310.7L48.17 310.87L46.52 310.98L44.86 311L43.21 310.94L41.57 310.8L39.93 310.56L38.3 310.24L36.67 309.83L35.06 309.32L33.46 308.71L31.87 308L30.29 307.19L28.73 306.27L27.18 305.24L25.65 304.1L24.14 302.84L22.64 301.47L21.16 299.97L20.42 299.13L19.73 298.26L19.1 297.36L18.53 296.43L18.02 295.48L17.57 294.51L17.17 293.52L16.82 292.5L16.53 291.47L16.3 290.43L16.11 289.37L15.97 288.29L15.89 287.21L15.85 286.12L15.86 285.02L15.92 283.92L16.02 282.82L16.16 281.71L16.35 280.61L16.58 279.51L16.86 278.41L17.17 277.32L17.52 276.24L17.91 275.17L18.34 274.11L18.8 273.06L19.3 272.03L19.83 271.01L20.4 270.02L20.99 269.05L21.62 268.1L22.28 267.17L22.97 266.27L23.68 265.4L24.42 264.56L25.19 263.75L25.98 262.98L26.8 262.24L27.63 261.54L28.49 260.88L28.49 260.48L28.5 260.35L28.5 259.85L28.51 259.73L28.51 259.61L28.52 259.49L28.53 259.38L28.54 259.26L28.55 259.15L28.56 259.04L28.57 258.93L28.59 258.83L28.61 258.72L28.63 258.61L28.67 258.41L28.73 258.21L28.76 258.11L28.79 258.01L28.83 257.91L28.87 257.81L28.91 257.72L28.96 257.62L29.01 257.53L29.06 257.43L29.12 257.34L29.18 257.25L29.24 257.15L29.38 256.97L29.46 256.88L29.54 256.79L29.63 256.69L29.72 256.6L31.82 253.94L33.91 251.27L36 248.58L38.08 245.89L40.15 243.18L42.21 240.47L44.27 237.75L46.32 235.02L48.37 232.28L50.41 229.54L52.44 226.78L54.48 224.02L56.5 221.26L58.53 218.49L60.55 215.72L62.57 212.94L68.63 204.57L70.64 201.78L72.66 198.99L74.67 196.19L82.75 184.99L88.84 176.59L90.87 173.8L92.92 171L94.96 168.21L97.01 165.43L99.07 162.64L101.13 159.86L103.21 157.09L105.28 154.32L107.37 151.55L109.46 148.8L111.57 146.04L109.92 144.08L108.26 142.11L106.61 140.16L104.95 138.2L103.28 136.26L101.62 134.31L99.95 132.38L98.27 130.45L96.59 128.53L94.9 126.61L93.21 124.7L91.51 122.8L89.81 120.91L88.1 119.02L86.38 117.14L82.92 113.4L81.18 111.55L79.42 109.7L77.67 107.87L75.9 106.04L74.12 104.22L72.33 102.41L70.53 100.61L68.72 98.82L66.91 97.05L65.08 95.28L63.23 93.52L61.38 91.77L59.51 90.04L57.63 88.32L55.74 86.6L53.84 84.9L51.92 83.22L49.99 81.54L48.04 79.88L46.08 78.23L44.1 76.59L42.11 74.97L40.1 73.36L39.92 73.4L39.73 73.44L39.37 73.5L39.18 73.53L39 73.55L38.82 73.56L38.64 73.58L37.92 73.58L37.74 73.56L37.56 73.55L37.38 73.53L37.21 73.5L37.03 73.47L36.86 73.44L36.68 73.4L36.51 73.36L36.34 73.31L36.17 73.25L36 73.2L35.83 73.14L35.67 73.07L35.5 73L35.02 72.76L34.86 72.67L34.7 72.57L34.55 72.48L34.4 72.37L34.24 72.27L34.1 72.15L33.95 72.04L33.8 71.91L33.66 71.79L33.52 71.66L33.38 71.52L32.14 70.31L30.91 69.03L29.68 67.71L28.45 66.35L27.24 64.93L26.05 63.48L24.88 61.98L23.72 60.45L22.6 58.88L21.51 57.27L20.45 55.64L19.43 53.98L18.45 52.3L17.52 50.59L16.63 48.86L15.8 47.11L15.02 45.35L14.31 43.57L13.66 41.78L13.07 39.99L12.56 38.19L12.12 36.39L11.76 34.58L11.48 32.78L11.29 30.98L11.18 29.19L11.17 27.4L11.26 25.63L11.44 23.87L11.73 22.13L12.13 20.41L12.64 18.71L13.27 17.03L14.01 15.38L14.87 13.76L15.87 12.17L16.99 10.61L18.24 9.09L19.63 7.61L21.16 6.17L22.84 4.72L24.59 3.47L26.38 2.44L28.23 1.59L30.13 0.94L32.07 0.46L34.06 0.15L36.08 0.01L38.13 0.03L40.21 0.19ZM176.31 95.5L172.65 99.46L170.82 101.41L168.98 103.29L169.94 102.63L170.97 101.91L173.1 100.39L174.13 99.67L175.09 99.01L175.96 98.05L176.76 97.02L178.3 94.89L179.11 93.86L179.98 92.9L179.98 91.68L178.14 93.56L176.31 95.5ZM108.74 77.02L109.61 78.24L110.5 79.44L111.41 80.63L112.33 81.8L113.24 82.95L114.14 84.06L115.01 85.14L115.84 86.18L116.04 86.41L116.24 86.67L116.43 86.97L116.6 87.31L116.76 87.66L116.88 88.04L116.98 88.43L117.04 88.83L117.06 89.24L117.67 89.85L118.29 90.45L118.9 91.05L119.51 91.63L120.12 92.19L120.73 92.72L121.34 93.23L121.95 93.69L122.56 94.12L120.93 92.07L119.3 89.97L117.67 87.86L116.05 85.72L114.42 83.59L112.79 81.45L111.16 79.34L109.53 77.25L107.9 75.19L107.9 75.8L108.74 77.02Z" id="jdFbOvnNX"></path><path d="M40.21 0.19L42.32 0.49L44.45 0.93L46.6 1.49L48.76 2.17L50.93 2.97L53.1 3.86L55.28 4.85L57.45 5.92L59.62 7.08L61.78 8.3L63.93 9.59L66.06 10.94L68.16 12.34L70.24 13.77L72.3 15.24L74.31 16.74L76.3 18.25L78.24 19.78L80.13 21.31L81.98 22.83L83.77 24.34L85.51 25.83L87.19 27.29L88.8 28.72L90.35 30.1L91.82 31.43L93.21 32.7L94.53 33.91L95.76 35.04L96.91 36.1L98.42 37.52L99.92 38.94L101.41 40.38L102.9 41.81L104.38 43.25L105.86 44.7L107.33 46.15L108.79 47.6L110.25 49.06L113.15 51.98L114.59 53.45L116.02 54.92L118.88 57.88L120.29 59.37L121.71 60.85L123.12 62.34L127.32 66.84L128.71 68.35L130.09 69.85L131.48 71.37L132.85 72.88L134.23 74.4L135.6 75.92L136.96 77.45L138.33 78.97L139.68 80.5L141.04 82.04L142.39 83.57L145.09 86.65L146.43 88.2L147.77 89.74L149.11 91.29L150.44 92.85L151.77 94.4L153.1 95.96L155.5 93.3L157.92 90.66L159.14 89.34L160.37 88.03L162.85 85.41L164.09 84.11L165.35 82.8L166.61 81.51L167.87 80.21L170.43 77.63L171.71 76.35L173 75.07L174.3 73.8L175.6 72.52L178.22 70L179.54 68.74L182.2 66.24L183.54 64.99L184.88 63.76L186.23 62.52L187.58 61.3L188.94 60.07L190.3 58.86L193.04 56.44L194.42 55.24L197.2 52.86L198.59 51.68L199.99 50.5L201.39 49.33L202.8 48.17L204.22 47.02L205.63 45.87L207.02 44.77L208.41 43.66L209.83 42.55L211.26 41.45L212.7 40.34L214.16 39.25L215.63 38.17L217.12 37.1L218.62 36.04L220.13 35.01L221.66 33.99L223.2 33L224.75 32.04L226.32 31.11L227.89 30.21L229.48 29.35L231.08 28.53L232.69 27.75L234.31 27.01L235.95 26.32L237.59 25.68L239.24 25.1L240.9 24.57L242.58 24.1L244.26 23.69L245.95 23.35L247.65 23.07L249.35 22.87L251.07 22.73L252.79 22.68L254.52 22.7L256.26 22.8L258 22.99L259.75 23.27L261.51 23.64L263.27 24.1L265.04 24.66L266.82 25.31L268.6 26.07L270.38 26.93L272.01 27.84L273.5 28.82L274.86 29.86L276.1 30.96L277.21 32.13L278.21 33.35L279.09 34.62L279.86 35.94L280.52 37.3L281.07 38.71L281.52 40.15L281.88 41.63L282.15 43.14L282.32 44.68L282.41 46.24L282.41 47.82L282.34 49.41L282.19 51.02L281.97 52.64L281.68 54.27L281.33 55.89L280.92 57.52L280.45 59.14L279.92 60.75L279.35 62.35L278.73 63.94L278.07 65.5L277.38 67.05L276.64 68.57L275.88 70.05L275.09 71.51L274.27 72.93L273.44 74.3L272.58 75.64L271.72 76.92L270.84 78.16L269.96 79.34L269.08 80.46L268.2 81.52L267.33 82.52L265.72 84.35L264.12 86.18L262.51 88.02L260.9 89.85L259.29 91.68L257.67 93.51L256.06 95.35L252.82 99.01L251.21 100.84L249.59 102.68L244.73 108.17L243.11 110.01L241.5 111.84L238.26 115.5L236.65 117.33L235.03 119.17L233.42 121L231.8 122.83L230.19 124.66L228.58 126.5L226.97 128.33L225.37 130.16L223.76 131.99L222.16 133.83L220.56 135.66L218.97 137.49L217.37 139.32L215.78 141.16L214.2 142.99L212.61 144.82L211.03 146.65L209.46 148.49L207.88 150.32L206.31 152.15L204.75 153.98L203.19 155.82L203.55 156.18L203.73 156.37L203.91 156.55L204.08 156.73L204.25 156.92L204.59 157.28L204.76 157.47L204.93 157.65L205.09 157.83L205.26 158.02L205.58 158.38L205.75 158.56L205.91 158.75L206.23 159.11L206.39 159.3L206.71 159.66L206.87 159.85L207.19 160.21L207.35 160.4L207.52 160.58L207.68 160.76L207.84 160.95L208.01 161.13L208.17 161.31L208.34 161.5L208.68 161.86L208.85 162.05L209.19 162.41L209.37 162.6L209.73 162.96L209.91 163.15L211.57 164.97L213.25 166.77L214.94 168.56L216.66 170.32L218.39 172.07L220.14 173.81L221.9 175.53L223.67 177.24L225.45 178.94L227.25 180.62L229.06 182.3L230.87 183.96L232.69 185.62L234.52 187.28L236.35 188.93L240.03 192.21L241.88 193.85L243.72 195.49L245.57 197.12L249.25 200.4L251.09 202.05L252.92 203.69L254.75 205.35L256.57 207.01L260.19 210.35L261.98 212.04L263.77 213.74L265.54 215.45L267.3 217.17L269.04 218.91L270.77 220.66L272.48 222.43L274.18 224.22L275.86 226.02L277.51 227.85L279.15 229.69L280.76 231.56L281.56 232.46L282.39 233.41L283.25 234.4L284.14 235.45L285.04 236.54L285.96 237.67L286.89 238.84L287.82 240.05L288.75 241.29L289.68 242.56L290.59 243.86L291.49 245.19L292.38 246.53L293.23 247.9L294.06 249.29L294.85 250.68L295.6 252.1L296.3 253.52L296.96 254.94L297.56 256.37L298.1 257.8L298.58 259.23L298.99 260.66L299.32 262.08L299.58 263.49L299.75 264.89L299.83 266.27L299.82 267.63L299.71 268.98L299.49 270.3L299.17 271.59L298.73 272.86L298.17 274.1L297.49 275.3L296.68 276.46L295.74 277.59L294.66 278.67L293.43 279.71L292.06 280.7L290.54 281.65L288.83 282.59L287.11 283.41L285.37 284.12L283.61 284.71L281.84 285.19L280.05 285.56L278.25 285.83L276.44 286L274.63 286.07L272.8 286.05L270.97 285.95L269.14 285.76L267.3 285.49L265.47 285.14L263.63 284.72L261.79 284.23L259.96 283.67L258.13 283.05L256.31 282.38L254.5 281.65L252.69 280.87L250.9 280.04L249.12 279.17L247.35 278.26L245.6 277.31L243.86 276.34L242.14 275.34L240.44 274.31L238.76 273.26L237.11 272.2L235.48 271.12L233.87 270.04L232.29 268.94L230.74 267.85L229.22 266.76L227.73 265.68L226.28 264.61L224.86 263.55L223.47 262.51L222.13 261.49L220.48 260.25L218.85 259L217.23 257.74L215.62 256.47L214.02 255.19L212.43 253.91L210.85 252.61L209.28 251.31L207.72 250L206.17 248.68L203.09 246.02L201.57 244.68L200.05 243.33L198.55 241.97L197.05 240.6L195.56 239.23L194.07 237.85L191.13 235.07L189.66 233.67L186.76 230.85L185.31 229.43L182.45 226.57L181.02 225.13L178.18 222.23L176.77 220.77L175.37 219.31L173.96 217.84L172.56 216.37L171.17 214.89L168.39 211.91L167.01 210.42L165.63 208.92L164.25 207.41L162.88 205.9L161.09 208.24L159.3 210.59L157.5 212.94L155.71 215.29L153.9 217.65L152.1 220.01L150.29 222.36L146.65 227.08L144.82 229.43L142.98 231.78L141.14 234.12L139.29 236.46L137.43 238.79L135.56 241.11L131.8 245.73L129.9 248.02L127.99 250.29L126.07 252.56L124.14 254.8L122.2 257.04L120.25 259.25L118.28 261.45L116.3 263.63L114.31 265.79L112.3 267.92L110.27 270.04L108.24 272.13L106.18 274.19L104.11 276.23L102.03 278.25L99.92 280.23L97.8 282.19L95.67 284.11L93.51 286.01L91.33 287.87L89.14 289.7L86.92 291.49L84.69 293.25L83.26 294.39L81.81 295.52L80.33 296.62L78.84 297.71L77.33 298.78L75.8 299.82L74.25 300.83L72.69 301.81L71.11 302.75L69.52 303.66L67.92 304.53L66.31 305.36L64.69 306.15L63.06 306.88L61.42 307.56L59.78 308.19L58.13 308.77L56.47 309.28L54.82 309.74L53.16 310.13L51.5 310.45L49.83 310.7L48.17 310.87L46.52 310.98L44.86 311L43.21 310.94L41.57 310.8L39.93 310.56L38.3 310.24L36.67 309.83L35.06 309.32L33.46 308.71L31.87 308L30.29 307.19L28.73 306.27L27.18 305.24L25.65 304.1L24.14 302.84L22.64 301.47L21.16 299.97L20.42 299.13L19.73 298.26L19.1 297.36L18.53 296.43L18.02 295.48L17.57 294.51L17.17 293.52L16.82 292.5L16.53 291.47L16.3 290.43L16.11 289.37L15.97 288.29L15.89 287.21L15.85 286.12L15.86 285.02L15.92 283.92L16.02 282.82L16.16 281.71L16.35 280.61L16.58 279.51L16.86 278.41L17.17 277.32L17.52 276.24L17.91 275.17L18.34 274.11L18.8 273.06L19.3 272.03L19.83 271.01L20.4 270.02L20.99 269.05L21.62 268.1L22.28 267.17L22.97 266.27L23.68 265.4L24.42 264.56L25.19 263.75L25.98 262.98L26.8 262.24L27.63 261.54L28.49 260.88L28.49 260.48L28.5 260.35L28.5 259.85L28.51 259.73L28.51 259.61L28.52 259.49L28.53 259.38L28.54 259.26L28.55 259.15L28.56 259.04L28.57 258.93L28.59 258.83L28.61 258.72L28.63 258.61L28.67 258.41L28.73 258.21L28.76 258.11L28.79 258.01L28.83 257.91L28.87 257.81L28.91 257.72L28.96 257.62L29.01 257.53L29.06 257.43L29.12 257.34L29.18 257.25L29.24 257.15L29.38 256.97L29.46 256.88L29.54 256.79L29.63 256.69L29.72 256.6L31.82 253.94L33.91 251.27L36 248.58L38.08 245.89L40.15 243.18L42.21 240.47L44.27 237.75L46.32 235.02L48.37 232.28L50.41 229.54L52.44 226.78L54.48 224.02L56.5 221.26L58.53 218.49L60.55 215.72L62.57 212.94L68.63 204.57L70.64 201.78L72.66 198.99L74.67 196.19L82.75 184.99L88.84 176.59L90.87 173.8L92.92 171L94.96 168.21L97.01 165.43L99.07 162.64L101.13 159.86L103.21 157.09L105.28 154.32L107.37 151.55L109.46 148.8L111.57 146.04L109.92 144.08L108.26 142.11L106.61 140.16L104.95 138.2L103.28 136.26L101.62 134.31L99.95 132.38L98.27 130.45L96.59 128.53L94.9 126.61L93.21 124.7L91.51 122.8L89.81 120.91L88.1 119.02L86.38 117.14L82.92 113.4L81.18 111.55L79.42 109.7L77.67 107.87L75.9 106.04L74.12 104.22L72.33 102.41L70.53 100.61L68.72 98.82L66.91 97.05L65.08 95.28L63.23 93.52L61.38 91.77L59.51 90.04L57.63 88.32L55.74 86.6L53.84 84.9L51.92 83.22L49.99 81.54L48.04 79.88L46.08 78.23L44.1 76.59L42.11 74.97L40.1 73.36L39.92 73.4L39.73 73.44L39.37 73.5L39.18 73.53L39 73.55L38.82 73.56L38.64 73.58L37.92 73.58L37.74 73.56L37.56 73.55L37.38 73.53L37.21 73.5L37.03 73.47L36.86 73.44L36.68 73.4L36.51 73.36L36.34 73.31L36.17 73.25L36 73.2L35.83 73.14L35.67 73.07L35.5 73L35.02 72.76L34.86 72.67L34.7 72.57L34.55 72.48L34.4 72.37L34.24 72.27L34.1 72.15L33.95 72.04L33.8 71.91L33.66 71.79L33.52 71.66L33.38 71.52L32.14 70.31L30.91 69.03L29.68 67.71L28.45 66.35L27.24 64.93L26.05 63.48L24.88 61.98L23.72 60.45L22.6 58.88L21.51 57.27L20.45 55.64L19.43 53.98L18.45 52.3L17.52 50.59L16.63 48.86L15.8 47.11L15.02 45.35L14.31 43.57L13.66 41.78L13.07 39.99L12.56 38.19L12.12 36.39L11.76 34.58L11.48 32.78L11.29 30.98L11.18 29.19L11.17 27.4L11.26 25.63L11.44 23.87L11.73 22.13L12.13 20.41L12.64 18.71L13.27 17.03L14.01 15.38L14.87 13.76L15.87 12.17L16.99 10.61L18.24 9.09L19.63 7.61L21.16 6.17L22.84 4.72L24.59 3.47L26.38 2.44L28.23 1.59L30.13 0.94L32.07 0.46L34.06 0.15L36.08 0.01L38.13 0.03L40.21 0.19ZM176.31 95.5L172.65 99.46L170.82 101.41L168.98 103.29L169.94 102.63L170.97 101.91L173.1 100.39L174.13 99.67L175.09 99.01L175.96 98.05L176.76 97.02L178.3 94.89L179.11 93.86L179.98 92.9L179.98 91.68L178.14 93.56L176.31 95.5ZM108.74 77.02L109.61 78.24L110.5 79.44L111.41 80.63L112.33 81.8L113.24 82.95L114.14 84.06L115.01 85.14L115.84 86.18L116.04 86.41L116.24 86.67L116.43 86.97L116.6 87.31L116.76 87.66L116.88 88.04L116.98 88.43L117.04 88.83L117.06 89.24L117.67 89.85L118.29 90.45L118.9 91.05L119.51 91.63L120.12 92.19L120.73 92.72L121.34 93.23L121.95 93.69L122.56 94.12L120.93 92.07L119.3 89.97L117.67 87.86L116.05 85.72L114.42 83.59L112.79 81.45L111.16 79.34L109.53 77.25L107.9 75.19L107.9 75.8L108.74 77.02Z" id="a22RoyCQM7"></path></defs><g><g><g><use xlink:href="#jdFbOvnNX" opacity="1" fill="#00008b" fill-opacity="1"></use><g><use xlink:href="#jdFbOvnNX" opacity="1" fill-opacity="0" stroke="#000000" stroke-width="1" stroke-opacity="0"></use></g></g><g><use xlink:href="#a22RoyCQM7" opacity="1" fill="#000000" fill-opacity="0"></use><g><use xlink:href="#a22RoyCQM7" opacity="1" fill-opacity="0" stroke="#000000" stroke-width="1" stroke-opacity="0"></use></g></g></g></g></svg>