<?xml version="1.0" encoding="UTF-8" standalone="no"?>
<!DOCTYPE svg PUBLIC "-//W3C//DTD SVG 1.1//EN" "http://www.w3.org/Graphics/SVG/1.1/DTD/svg11.dtd">
<svg version="1.1" xmlns="http://www.w3.org/2000/svg" xmlns:xlink="http://www.w3.org/1999/xlink" preserveAspectRatio="xMidYMid meet" viewBox="0 0 640 640" width="640" height="640"><defs><path d="M346.21 1.06L359.09 2.37L371.84 4.19L384.4 6.51L396.8 9.31L409.02 12.59L421.04 16.34L432.85 20.54L444.43 25.18L455.81 30.27L466.93 35.78L477.81 41.7L488.43 48.02L498.78 54.72L508.86 61.82L518.66 69.3L528.13 77.12L537.31 85.31L546.16 93.84L554.69 102.69L562.88 111.86L570.7 121.34L578.18 131.14L585.28 141.22L591.98 151.57L598.3 162.19L604.22 173.07L609.73 184.19L614.82 195.57L619.46 207.15L623.66 218.96L627.41 230.98L630.69 243.2L633.49 255.58L635.81 268.16L637.63 280.9L638.94 293.79L639.73 306.83L640 320L639.73 333.17L638.94 346.21L637.63 359.1L635.81 371.84L633.49 384.42L630.69 396.8L627.41 409.02L623.66 421.04L619.46 432.85L614.82 444.43L609.73 455.81L604.22 466.93L598.3 477.81L591.98 488.43L585.28 498.78L578.18 508.86L570.7 518.66L562.88 528.14L554.69 537.31L546.16 546.18L537.31 554.69L528.13 562.88L518.66 570.7L508.86 578.18L498.78 585.28L488.43 591.98L477.81 598.3L466.93 604.22L455.81 609.73L444.43 614.82L432.85 619.46L421.04 623.66L409.02 627.41L396.8 630.69L384.4 633.49L371.84 635.81L359.09 637.63L346.21 638.94L333.17 639.73L320 640L306.83 639.73L293.79 638.94L280.9 637.63L268.16 635.81L255.58 633.49L243.18 630.69L230.98 627.41L218.96 623.66L207.15 619.46L195.55 614.82L184.19 609.73L173.07 604.22L162.19 598.3L151.57 591.98L141.22 585.28L131.14 578.18L121.34 570.7L111.86 562.88L102.69 554.69L93.82 546.18L85.31 537.31L77.12 528.14L69.3 518.66L61.82 508.86L54.72 498.78L48.02 488.43L41.7 477.81L35.78 466.93L30.27 455.81L25.18 444.43L20.54 432.85L16.34 421.04L12.59 409.02L9.31 396.8L6.51 384.42L4.19 371.84L2.37 359.1L1.06 346.21L0.27 333.17L0 320L0.27 306.83L1.06 293.79L2.37 280.9L4.19 268.16L6.51 255.58L9.31 243.2L12.59 230.98L16.34 218.96L20.54 207.15L25.18 195.57L30.27 184.19L35.78 173.07L41.7 162.19L48.02 151.57L54.72 141.22L61.82 131.14L69.3 121.34L77.12 111.86L85.31 102.69L93.82 93.84L102.69 85.31L111.86 77.12L121.34 69.3L131.14 61.82L141.22 54.72L151.57 48.02L162.19 41.7L173.07 35.78L184.19 30.27L195.55 25.18L207.15 20.54L218.96 16.34L230.98 12.59L243.18 9.31L255.58 6.51L268.16 4.19L280.9 2.37L293.79 1.06L306.83 0.27L320 0L333.17 0.27L346.21 1.06ZM297.23 42.9L286.03 44.03L274.96 45.62L264.03 47.63L253.26 50.06L242.66 52.91L232.21 56.16L221.95 59.81L211.89 63.86L202 68.27L192.34 73.04L182.88 78.19L173.65 83.68L164.66 89.52L155.9 95.68L147.41 102.18L139.17 108.98L131.18 116.08L123.49 123.49L116.1 131.18L108.98 139.17L102.18 147.41L95.68 155.9L89.52 164.66L83.68 173.65L78.19 182.88L73.06 192.34L68.27 202L63.86 211.89L59.82 221.95L56.16 232.21L52.91 242.66L50.06 253.26L47.63 264.03L45.62 274.96L44.03 286.03L42.9 297.23L42.21 308.56L41.97 320L42.21 331.44L42.9 342.77L44.03 353.97L45.62 365.04L47.63 375.97L50.06 386.74L52.91 397.34L56.16 407.79L59.82 418.05L63.86 428.11L68.27 438L73.06 447.66L78.19 457.12L83.68 466.35L89.52 475.34L95.68 484.1L102.18 492.59L108.98 500.83L116.1 508.82L123.49 516.51L131.18 523.92L139.17 531.02L147.41 537.82L155.9 544.32L164.66 550.48L173.65 556.32L182.88 561.81L192.34 566.96L202 571.73L211.89 576.14L221.95 580.19L232.21 583.84L242.66 587.09L253.26 589.94L264.03 592.37L274.96 594.38L286.03 595.97L297.23 597.1L308.56 597.79L320 598.03L331.44 597.79L342.77 597.1L353.97 595.97L365.04 594.38L375.97 592.37L386.74 589.94L397.34 587.09L407.79 583.84L418.05 580.19L428.11 576.14L438 571.73L447.66 566.94L457.12 561.81L466.35 556.32L475.34 550.48L484.1 544.32L492.59 537.82L500.85 531.02L508.82 523.92L516.51 516.51L523.92 508.82L531.02 500.83L537.82 492.59L544.32 484.1L550.48 475.34L556.32 466.35L561.81 457.12L566.96 447.66L571.73 438L576.14 428.11L580.19 418.05L583.84 407.79L587.09 397.34L589.94 386.74L592.37 375.97L594.38 365.04L595.97 353.97L597.1 342.77L597.79 331.44L598.03 320L597.79 308.56L597.1 297.23L595.97 286.03L594.38 274.96L592.37 264.03L589.94 253.26L587.09 242.66L583.84 232.21L580.18 221.95L576.14 211.89L571.73 202L566.94 192.34L561.81 182.88L556.32 173.65L550.48 164.66L544.32 155.9L537.82 147.41L531.02 139.17L523.92 131.18L516.51 123.49L508.82 116.08L500.85 108.98L492.59 102.18L484.1 95.68L475.34 89.52L466.35 83.68L457.12 78.19L447.66 73.04L438 68.27L428.11 63.86L418.05 59.81L407.79 56.16L397.34 52.91L386.74 50.06L375.97 47.63L365.04 45.62L353.97 44.03L342.77 42.9L331.44 42.21L320 41.97L308.56 42.21L297.23 42.9Z" id="a2R1427S4J"></path><path d="M346.21 1.06L359.09 2.37L371.84 4.19L384.4 6.51L396.8 9.31L409.02 12.59L421.04 16.34L432.85 20.54L444.43 25.18L455.81 30.27L466.93 35.78L477.81 41.7L488.43 48.02L498.78 54.72L508.86 61.82L518.66 69.3L528.13 77.12L537.31 85.31L546.16 93.84L554.69 102.69L562.88 111.86L570.7 121.34L578.18 131.14L585.28 141.22L591.98 151.57L598.3 162.19L604.22 173.07L609.73 184.19L614.82 195.57L619.46 207.15L623.66 218.96L627.41 230.98L630.69 243.2L633.49 255.58L635.81 268.16L637.63 280.9L638.94 293.79L639.73 306.83L640 320L639.73 333.17L638.94 346.21L637.63 359.1L635.81 371.84L633.49 384.42L630.69 396.8L627.41 409.02L623.66 421.04L619.46 432.85L614.82 444.43L609.73 455.81L604.22 466.93L598.3 477.81L591.98 488.43L585.28 498.78L578.18 508.86L570.7 518.66L562.88 528.14L554.69 537.31L546.16 546.18L537.31 554.69L528.13 562.88L518.66 570.7L508.86 578.18L498.78 585.28L488.43 591.98L477.81 598.3L466.93 604.22L455.81 609.73L444.43 614.82L432.85 619.46L421.04 623.66L409.02 627.41L396.8 630.69L384.4 633.49L371.84 635.81L359.09 637.63L346.21 638.94L333.17 639.73L320 640L306.83 639.73L293.79 638.94L280.9 637.63L268.16 635.81L255.58 633.49L243.18 630.69L230.98 627.41L218.96 623.66L207.15 619.46L195.55 614.82L184.19 609.73L173.07 604.22L162.19 598.3L151.57 591.98L141.22 585.28L131.14 578.18L121.34 570.7L111.86 562.88L102.69 554.69L93.82 546.18L85.31 537.31L77.12 528.14L69.3 518.66L61.82 508.86L54.72 498.78L48.02 488.43L41.7 477.81L35.78 466.93L30.27 455.81L25.18 444.43L20.54 432.85L16.34 421.04L12.59 409.02L9.31 396.8L6.51 384.42L4.19 371.84L2.37 359.1L1.06 346.21L0.27 333.17L0 320L0.27 306.83L1.06 293.79L2.37 280.9L4.19 268.16L6.51 255.58L9.31 243.2L12.59 230.98L16.34 218.96L20.54 207.15L25.18 195.57L30.27 184.19L35.78 173.07L41.7 162.19L48.02 151.57L54.72 141.22L61.82 131.14L69.3 121.34L77.12 111.86L85.31 102.69L93.82 93.84L102.69 85.31L111.86 77.12L121.34 69.3L131.14 61.82L141.22 54.72L151.57 48.02L162.19 41.7L173.07 35.78L184.19 30.27L195.55 25.18L207.15 20.54L218.96 16.34L230.98 12.59L243.18 9.31L255.58 6.51L268.16 4.19L280.9 2.37L293.79 1.06L306.83 0.27L320 0L333.17 0.27L346.21 1.06ZM297.23 42.9L286.03 44.03L274.96 45.62L264.03 47.63L253.26 50.06L242.66 52.91L232.21 56.16L221.95 59.81L211.89 63.86L202 68.27L192.34 73.04L182.88 78.19L173.65 83.68L164.66 89.52L155.9 95.68L147.41 102.18L139.17 108.98L131.18 116.08L123.49 123.49L116.1 131.18L108.98 139.17L102.18 147.41L95.68 155.9L89.52 164.66L83.68 173.65L78.19 182.88L73.06 192.34L68.27 202L63.86 211.89L59.82 221.95L56.16 232.21L52.91 242.66L50.06 253.26L47.63 264.03L45.62 274.96L44.03 286.03L42.9 297.23L42.21 308.56L41.97 320L42.21 331.44L42.9 342.77L44.03 353.97L45.62 365.04L47.63 375.97L50.06 386.74L52.91 397.34L56.16 407.79L59.82 418.05L63.86 428.11L68.27 438L73.06 447.66L78.19 457.12L83.68 466.35L89.52 475.34L95.68 484.1L102.18 492.59L108.98 500.83L116.1 508.82L123.49 516.51L131.18 523.92L139.17 531.02L147.41 537.82L155.9 544.32L164.66 550.48L173.65 556.32L182.88 561.81L192.34 566.96L202 571.73L211.89 576.14L221.95 580.19L232.21 583.84L242.66 587.09L253.26 589.94L264.03 592.37L274.96 594.38L286.03 595.97L297.23 597.1L308.56 597.79L320 598.03L331.44 597.79L342.77 597.1L353.97 595.97L365.04 594.38L375.97 592.37L386.74 589.94L397.34 587.09L407.79 583.84L418.05 580.19L428.11 576.14L438 571.73L447.66 566.94L457.12 561.81L466.35 556.32L475.34 550.48L484.1 544.32L492.59 537.82L500.85 531.02L508.82 523.92L516.51 516.51L523.92 508.82L531.02 500.83L537.82 492.59L544.32 484.1L550.48 475.34L556.32 466.35L561.81 457.12L566.96 447.66L571.73 438L576.14 428.11L580.19 418.05L583.84 407.79L587.09 397.34L589.94 386.74L592.37 375.97L594.38 365.04L595.97 353.97L597.1 342.77L597.79 331.44L598.03 320L597.79 308.56L597.1 297.23L595.97 286.03L594.38 274.96L592.37 264.03L589.94 253.26L587.09 242.66L583.84 232.21L580.18 221.95L576.14 211.89L571.73 202L566.94 192.34L561.81 182.88L556.32 173.65L550.48 164.66L544.32 155.9L537.82 147.41L531.02 139.17L523.92 131.18L516.51 123.49L508.82 116.08L500.85 108.98L492.59 102.18L484.1 95.68L475.34 89.52L466.35 83.68L457.12 78.19L447.66 73.04L438 68.27L428.11 63.86L418.05 59.81L407.79 56.16L397.34 52.91L386.74 50.06L375.97 47.63L365.04 45.62L353.97 44.03L342.77 42.9L331.44 42.21L320 41.97L308.56 42.21L297.23 42.9Z" id="e3vwIoQruI"></path><path d="M346.21 1.06L359.09 2.37L371.84 4.19L384.4 6.51L396.8 9.31L409.02 12.59L421.04 16.34L432.85 20.54L444.43 25.18L455.81 30.27L466.93 35.78L477.81 41.7L488.43 48.02L498.78 54.72L508.86 61.82L518.66 69.3L528.13 77.12L537.31 85.31L546.16 93.84L554.69 102.69L562.88 111.86L570.7 121.34L578.18 131.14L585.28 141.22L591.98 151.57L598.3 162.19L604.22 173.07L609.73 184.19L614.82 195.57L619.46 207.15L623.66 218.96L627.41 230.98L630.69 243.2L633.49 255.58L635.81 268.16L637.63 280.9L638.94 293.79L639.73 306.83L640 320L639.73 333.17L638.94 346.21L637.63 359.1L635.81 371.84L633.49 384.42L630.69 396.8L627.41 409.02L623.66 421.04L619.46 432.85L614.82 444.43L609.73 455.81L604.22 466.93L598.3 477.81L591.98 488.43L585.28 498.78L578.18 508.86L570.7 518.66L562.88 528.14L554.69 537.31L546.16 546.18L537.31 554.69L528.13 562.88L518.66 570.7L508.86 578.18L498.78 585.28L488.43 591.98L477.81 598.3L466.93 604.22L455.81 609.73L444.43 614.82L432.85 619.46L421.04 623.66L409.02 627.41L396.8 630.69L384.4 633.49L371.84 635.81L359.09 637.63L346.21 638.94L333.17 639.73L320 640L306.83 639.73L293.79 638.94L280.9 637.63L268.16 635.81L255.58 633.49L243.18 630.69L230.98 627.41L218.96 623.66L207.15 619.46L195.55 614.82L184.19 609.73L173.07 604.22L162.19 598.3L151.57 591.98L141.22 585.28L131.14 578.18L121.34 570.7L111.86 562.88L102.69 554.69L93.82 546.18L85.31 537.31L77.12 528.14L69.3 518.66L61.82 508.86L54.72 498.78L48.02 488.43L41.7 477.81L35.78 466.93L30.27 455.81L25.18 444.43L20.54 432.85L16.34 421.04L12.59 409.02L9.31 396.8L6.51 384.42L4.19 371.84L2.37 359.1L1.06 346.21L0.27 333.17L0 320L0.27 306.83L1.06 293.79L2.37 280.9L4.19 268.16L6.51 255.58L9.31 243.2L12.59 230.98L16.34 218.96L20.54 207.15L25.18 195.57L30.27 184.19L35.78 173.07L41.7 162.19L48.02 151.57L54.72 141.22L61.82 131.14L69.3 121.34L77.12 111.86L85.31 102.69L93.82 93.84L102.69 85.31L111.86 77.12L121.34 69.3L131.14 61.82L141.22 54.72L151.57 48.02L162.19 41.7L173.07 35.78L184.19 30.27L195.55 25.18L207.15 20.54L218.96 16.34L230.98 12.59L243.18 9.31L255.58 6.51L268.16 4.19L280.9 2.37L293.79 1.06L306.83 0.27L320 0L333.17 0.27L346.21 1.06ZM297.23 42.9L286.03 44.03L274.96 45.62L264.03 47.63L253.26 50.06L242.66 52.91L232.21 56.16L221.95 59.81L211.89 63.86L202 68.27L192.34 73.04L182.88 78.19L173.65 83.68L164.66 89.52L155.9 95.68L147.41 102.18L139.17 108.98L131.18 116.08L123.49 123.49L116.1 131.18L108.98 139.17L102.18 147.41L95.68 155.9L89.52 164.66L83.68 173.65L78.19 182.88L73.06 192.34L68.27 202L63.86 211.89L59.82 221.95L56.16 232.21L52.91 242.66L50.06 253.26L47.63 264.03L45.62 274.96L44.03 286.03L42.9 297.23L42.21 308.56L41.97 320L42.21 331.44L42.9 342.77L44.03 353.97L45.62 365.04L47.63 375.97L50.06 386.74L52.91 397.34L56.16 407.79L59.82 418.05L63.86 428.11L68.27 438L73.06 447.66L78.19 457.12L83.68 466.35L89.52 475.34L95.68 484.1L102.18 492.59L108.98 500.83L116.1 508.82L123.49 516.51L131.18 523.92L139.17 531.02L147.41 537.82L155.9 544.32L164.66 550.48L173.65 556.32L182.88 561.81L192.34 566.96L202 571.73L211.89 576.14L221.95 580.19L232.21 583.84L242.66 587.09L253.26 589.94L264.03 592.37L274.96 594.38L286.03 595.97L297.23 597.1L308.56 597.79L320 598.03L331.44 597.79L342.77 597.1L353.97 595.97L365.04 594.38L375.97 592.37L386.74 589.94L397.34 587.09L407.79 583.84L418.05 580.19L428.11 576.14L438 571.73L447.66 566.94L457.12 561.81L466.35 556.32L475.34 550.48L484.1 544.32L492.59 537.82L500.85 531.02L508.82 523.92L516.51 516.51L523.92 508.82L531.02 500.83L537.82 492.59L544.32 484.1L550.48 475.34L556.32 466.35L561.81 457.12L566.96 447.66L571.73 438L576.14 428.11L580.19 418.05L583.84 407.79L587.09 397.34L589.94 386.74L592.37 375.97L594.38 365.04L595.97 353.97L597.1 342.77L597.79 331.44L598.03 320L597.79 308.56L597.1 297.23L595.97 286.03L594.38 274.96L592.37 264.03L589.94 253.26L587.09 242.66L583.84 232.21L580.18 221.95L576.14 211.89L571.73 202L566.94 192.34L561.81 182.88L556.32 173.65L550.48 164.66L544.32 155.9L537.82 147.41L531.02 139.17L523.92 131.18L516.51 123.49L508.82 116.08L500.85 108.98L492.59 102.18L484.1 95.68L475.34 89.52L466.35 83.68L457.12 78.19L447.66 73.04L438 68.27L428.11 63.86L418.05 59.81L407.79 56.16L397.34 52.91L386.74 50.06L375.97 47.63L365.04 45.62L353.97 44.03L342.77 42.9L331.44 42.21L320 41.97L308.56 42.21L297.23 42.9Z" id="a1av9DzIt4"></path><path d="M346.21 1.06L359.09 2.37L371.84 4.19L384.4 6.51L396.8 9.31L409.02 12.59L421.04 16.34L432.85 20.54L444.43 25.18L455.81 30.27L466.93 35.78L477.81 41.7L488.43 48.02L498.78 54.72L508.86 61.82L518.66 69.3L528.13 77.12L537.31 85.31L546.16 93.84L554.69 102.69L562.88 111.86L570.7 121.34L578.18 131.14L585.28 141.22L591.98 151.57L598.3 162.19L604.22 173.07L609.73 184.19L614.82 195.57L619.46 207.15L623.66 218.96L627.41 230.98L630.69 243.2L633.49 255.58L635.81 268.16L637.63 280.9L638.94 293.79L639.73 306.83L640 320L639.73 333.17L638.94 346.21L637.63 359.1L635.81 371.84L633.49 384.42L630.69 396.8L627.41 409.02L623.66 421.04L619.46 432.85L614.82 444.43L609.73 455.81L604.22 466.93L598.3 477.81L591.98 488.43L585.28 498.78L578.18 508.86L570.7 518.66L562.88 528.14L554.69 537.31L546.16 546.18L537.31 554.69L528.13 562.88L518.66 570.7L508.86 578.18L498.78 585.28L488.43 591.98L477.81 598.3L466.93 604.22L455.81 609.73L444.43 614.82L432.85 619.46L421.04 623.66L409.02 627.41L396.8 630.69L384.4 633.49L371.84 635.81L359.09 637.63L346.21 638.94L333.17 639.73L320 640L306.83 639.73L293.79 638.94L280.9 637.63L268.16 635.81L255.58 633.49L243.18 630.69L230.98 627.41L218.96 623.66L207.15 619.46L195.55 614.82L184.19 609.73L173.07 604.22L162.19 598.3L151.57 591.98L141.22 585.28L131.14 578.18L121.34 570.7L111.86 562.88L102.69 554.69L93.82 546.18L85.31 537.31L77.12 528.14L69.3 518.66L61.82 508.86L54.72 498.78L48.02 488.43L41.7 477.81L35.78 466.93L30.27 455.81L25.18 444.43L20.54 432.85L16.34 421.04L12.59 409.02L9.31 396.8L6.51 384.42L4.19 371.84L2.37 359.1L1.06 346.21L0.27 333.17L0 320L0.27 306.83L1.06 293.79L2.37 280.9L4.19 268.16L6.51 255.58L9.31 243.2L12.59 230.98L16.34 218.96L20.54 207.15L25.18 195.57L30.27 184.19L35.78 173.07L41.7 162.19L48.02 151.57L54.72 141.22L61.82 131.14L69.3 121.34L77.12 111.86L85.31 102.69L93.82 93.84L102.69 85.31L111.86 77.12L121.34 69.3L131.14 61.82L141.22 54.72L151.57 48.02L162.19 41.7L173.07 35.78L184.19 30.27L195.55 25.18L207.15 20.54L218.96 16.34L230.98 12.59L243.18 9.31L255.58 6.51L268.16 4.19L280.9 2.37L293.79 1.06L306.83 0.27L320 0L333.17 0.27L346.21 1.06ZM297.23 42.9L286.03 44.03L274.96 45.62L264.03 47.63L253.26 50.06L242.66 52.91L232.21 56.16L221.95 59.81L211.89 63.86L202 68.27L192.34 73.04L182.88 78.19L173.65 83.68L164.66 89.52L155.9 95.68L147.41 102.18L139.17 108.98L131.18 116.08L123.49 123.49L116.1 131.18L108.98 139.17L102.18 147.41L95.68 155.9L89.52 164.66L83.68 173.65L78.19 182.88L73.06 192.34L68.27 202L63.86 211.89L59.82 221.95L56.16 232.21L52.91 242.66L50.06 253.26L47.63 264.03L45.62 274.96L44.03 286.03L42.9 297.23L42.21 308.56L41.97 320L42.21 331.44L42.9 342.77L44.03 353.97L45.62 365.04L47.63 375.97L50.06 386.74L52.91 397.34L56.16 407.79L59.82 418.05L63.86 428.11L68.27 438L73.06 447.66L78.19 457.12L83.68 466.35L89.52 475.34L95.68 484.1L102.18 492.59L108.98 500.83L116.1 508.82L123.49 516.51L131.18 523.92L139.17 531.02L147.41 537.82L155.9 544.32L164.66 550.48L173.65 556.32L182.88 561.81L192.34 566.96L202 571.73L211.89 576.14L221.95 580.19L232.21 583.84L242.66 587.09L253.26 589.94L264.03 592.37L274.96 594.38L286.03 595.97L297.23 597.1L308.56 597.79L320 598.03L331.44 597.79L342.77 597.1L353.97 595.97L365.04 594.38L375.97 592.37L386.74 589.94L397.34 587.09L407.79 583.84L418.05 580.19L428.11 576.14L438 571.73L447.66 566.94L457.12 561.81L466.35 556.32L475.34 550.48L484.1 544.32L492.59 537.82L500.85 531.02L508.82 523.92L516.51 516.51L523.92 508.82L531.02 500.83L537.82 492.59L544.32 484.1L550.48 475.34L556.32 466.35L561.81 457.12L566.96 447.66L571.73 438L576.14 428.11L580.19 418.05L583.84 407.79L587.09 397.34L589.94 386.74L592.37 375.97L594.38 365.04L595.97 353.97L597.1 342.77L597.79 331.44L598.03 320L597.79 308.56L597.1 297.23L595.97 286.03L594.38 274.96L592.37 264.03L589.94 253.26L587.09 242.66L583.84 232.21L580.18 221.95L576.14 211.89L571.73 202L566.94 192.34L561.81 182.88L556.32 173.65L550.48 164.66L544.32 155.9L537.82 147.41L531.02 139.17L523.92 131.18L516.51 123.49L508.82 116.08L500.85 108.98L492.59 102.18L484.1 95.68L475.34 89.52L466.35 83.68L457.12 78.19L447.66 73.04L438 68.27L428.11 63.86L418.05 59.81L407.79 56.16L397.34 52.91L386.74 50.06L375.97 47.63L365.04 45.62L353.97 44.03L342.77 42.9L331.44 42.21L320 41.97L308.56 42.21L297.23 42.9Z" id="aah1QrFa9"></path><path d="M221.26 320C221.26 325.57 223.49 330.9 227.42 334.83C240.35 347.78 343.87 451.3 356.82 464.22C360.91 468.34 366.29 470.38 371.66 470.38C377.02 470.38 382.4 468.34 386.5 464.22C394.69 456.03 394.69 442.75 386.5 434.56C378.85 426.93 340.67 388.74 271.94 320C340.67 251.26 378.85 213.07 386.5 205.44C394.69 197.25 394.69 183.95 386.5 175.76C378.3 167.57 365.01 167.57 356.82 175.76C343.87 188.7 240.35 292.22 227.42 305.15C223.49 309.09 221.26 314.43 221.26 320Z" id="aca9wQQhe"></path><path d="M221.26 320C221.26 325.57 223.49 330.9 227.42 334.83C240.35 347.78 343.87 451.3 356.82 464.22C360.91 468.34 366.29 470.38 371.66 470.38C377.02 470.38 382.4 468.34 386.5 464.22C394.69 456.03 394.69 442.75 386.5 434.56C378.85 426.93 340.67 388.74 271.94 320C340.67 251.26 378.85 213.07 386.5 205.44C394.69 197.25 394.69 183.95 386.5 175.76C378.3 167.57 365.01 167.57 356.82 175.76C343.87 188.7 240.35 292.22 227.42 305.15C223.49 309.09 221.26 314.43 221.26 320Z" id="c14AFooP8"></path><path d="M221.26 320C221.26 325.57 223.49 330.9 227.42 334.83C240.35 347.78 343.87 451.3 356.82 464.22C360.91 468.34 366.29 470.38 371.66 470.38C377.02 470.38 382.4 468.34 386.5 464.22C394.69 456.03 394.69 442.75 386.5 434.56C378.85 426.93 340.67 388.74 271.94 320C340.67 251.26 378.85 213.07 386.5 205.44C394.69 197.25 394.69 183.95 386.5 175.76C378.3 167.57 365.01 167.57 356.82 175.76C343.87 188.7 240.35 292.22 227.42 305.15C223.49 309.09 221.26 314.43 221.26 320Z" id="b1nfTV4moM"></path><path d="M221.26 320C221.26 325.57 223.49 330.9 227.42 334.83C240.35 347.78 343.87 451.3 356.82 464.22C360.91 468.34 366.29 470.38 371.66 470.38C377.02 470.38 382.4 468.34 386.5 464.22C394.69 456.03 394.69 442.75 386.5 434.56C378.85 426.93 340.67 388.74 271.94 320C340.67 251.26 378.85 213.07 386.5 205.44C394.69 197.25 394.69 183.95 386.5 175.76C378.3 167.57 365.01 167.57 356.82 175.76C343.87 188.7 240.35 292.22 227.42 305.15C223.49 309.09 221.26 314.43 221.26 320Z" id="g12SHB1ZxU"></path></defs><g><g><g><use xlink:href="#a2R1427S4J" opacity="1" fill="#00008b" fill-opacity="1"></use><g><use xlink:href="#a2R1427S4J" opacity="1" fill-opacity="0" stroke="#000000" stroke-width="1" stroke-opacity="0"></use></g></g><g><use xlink:href="#e3vwIoQruI" opacity="1" fill="#000000" fill-opacity="0"></use><g><use xlink:href="#e3vwIoQruI" opacity="1" fill-opacity="0" stroke="#000000" stroke-width="1" stroke-opacity="0"></use></g></g><g><use xlink:href="#a1av9DzIt4" opacity="1" fill="#000000" fill-opacity="0"></use><g><use xlink:href="#a1av9DzIt4" opacity="1" fill-opacity="0" stroke="#000000" stroke-width="1" stroke-opacity="0"></use></g></g><g><use xlink:href="#aah1QrFa9" opacity="1" fill="#000000" fill-opacity="0"></use><g><use xlink:href="#aah1QrFa9" opacity="1" fill-opacity="0" stroke="#000000" stroke-width="1" stroke-opacity="0"></use></g></g><g><use xlink:href="#aca9wQQhe" opacity="1" fill="#00008b" fill-opacity="1"></use><g><use xlink:href="#aca9wQQhe" opacity="1" fill-opacity="0" stroke="#000000" stroke-width="1" stroke-opacity="0"></use></g></g><g><use xlink:href="#c14AFooP8" opacity="1" fill="#000000" fill-opacity="0"></use><g><use xlink:href="#c14AFooP8" opacity="1" fill-opacity="0" stroke="#000000" stroke-width="1" stroke-opacity="0"></use></g></g><g><use xlink:href="#b1nfTV4moM" opacity="1" fill="#000000" fill-opacity="0"></use><g><use xlink:href="#b1nfTV4moM" opacity="1" fill-opacity="0" stroke="#000000" stroke-width="1" stroke-opacity="0"></use></g></g><g><use xlink:href="#g12SHB1ZxU" opacity="1" fill="#000000" fill-opacity="0"></use><g><use xlink:href="#g12SHB1ZxU" opacity="1" fill-opacity="0" stroke="#000000" stroke-width="1" stroke-opacity="0"></use></g></g></g></g></svg>