<?xml version="1.0" encoding="UTF-8" standalone="no"?>
<!DOCTYPE svg PUBLIC "-//W3C//DTD SVG 1.1//EN" "http://www.w3.org/Graphics/SVG/1.1/DTD/svg11.dtd">
<svg version="1.1" xmlns="http://www.w3.org/2000/svg" xmlns:xlink="http://www.w3.org/1999/xlink" preserveAspectRatio="xMidYMid meet" viewBox="0 0 640 640" width="640" height="640"><defs><path d="M332.78 0.25L339.14 0.56L345.47 0.99L351.78 1.55L358.07 2.23L364.32 3.03L370.55 3.95L376.75 4.99L382.92 6.15L389.05 7.42L395.15 8.82L401.21 10.34L407.23 11.97L413.22 13.72L419.17 15.58L425.07 17.57L430.93 19.66L436.75 21.87L442.53 24.2L448.25 26.64L453.93 29.19L459.56 31.85L465.13 34.62L470.66 37.51L476.13 40.51L481.54 43.61L486.9 46.83L492.2 50.15L497.44 53.58L502.62 57.12L507.74 60.77L512.79 64.52L517.78 68.38L522.7 72.35L527.56 76.41L532.35 80.59L537.06 84.86L541.7 89.24L546.27 93.73L550.76 98.3L555.14 102.94L559.41 107.65L563.59 112.44L567.65 117.3L571.62 122.22L575.48 127.21L579.23 132.26L582.88 137.38L586.42 142.56L589.85 147.8L593.17 153.1L596.39 158.46L599.49 163.87L602.49 169.34L605.38 174.87L608.15 180.44L610.81 186.07L613.36 191.75L615.8 197.47L618.13 203.25L620.34 209.07L622.43 214.93L624.42 220.83L626.28 226.78L628.03 232.77L629.66 238.79L631.18 244.85L632.58 250.95L633.85 257.08L635.01 263.25L636.05 269.45L636.97 275.68L637.77 281.93L638.45 288.22L639.01 294.53L639.44 300.86L639.75 307.22L639.94 313.6L640 320L639.94 326.4L639.75 332.78L639.44 339.14L639.01 345.47L638.45 351.78L637.77 358.07L636.97 364.32L636.05 370.55L635.01 376.75L633.85 382.92L632.58 389.05L631.18 395.15L629.66 401.21L628.03 407.23L626.28 413.22L624.42 419.17L622.43 425.07L620.34 430.93L618.13 436.75L615.8 442.53L613.36 448.25L610.81 453.93L608.15 459.56L605.38 465.13L602.49 470.66L599.49 476.13L596.39 481.54L593.17 486.9L589.85 492.2L586.42 497.44L582.88 502.62L579.23 507.74L575.48 512.79L571.62 517.78L567.65 522.7L563.59 527.56L559.41 532.35L555.14 537.06L550.76 541.7L546.27 546.27L541.7 550.76L537.06 555.14L532.35 559.41L527.56 563.59L522.7 567.65L517.78 571.62L512.79 575.48L507.74 579.23L502.62 582.88L497.44 586.42L492.2 589.85L486.9 593.17L481.54 596.39L476.13 599.49L470.66 602.49L465.13 605.38L459.56 608.15L453.93 610.81L448.25 613.36L442.53 615.8L436.75 618.13L430.93 620.34L425.07 622.43L419.17 624.42L413.22 626.28L407.23 628.03L401.21 629.66L395.15 631.18L389.05 632.58L382.92 633.85L376.75 635.01L370.55 636.05L364.32 636.97L358.07 637.77L351.78 638.45L345.47 639.01L339.14 639.44L332.78 639.75L326.4 639.94L320 640L313.6 639.94L307.22 639.75L300.86 639.44L294.53 639.01L288.22 638.45L281.93 637.77L275.68 636.97L269.45 636.05L263.25 635.01L257.08 633.85L250.95 632.58L244.85 631.18L238.79 629.66L232.77 628.03L226.78 626.28L220.83 624.42L214.93 622.43L209.07 620.34L203.25 618.13L197.47 615.8L191.75 613.36L186.07 610.81L180.44 608.15L174.87 605.38L169.34 602.49L163.87 599.49L158.46 596.39L153.1 593.17L147.8 589.85L142.56 586.42L137.38 582.88L132.26 579.23L127.21 575.48L122.22 571.62L117.3 567.65L112.44 563.59L107.65 559.41L102.94 555.14L98.3 550.76L93.73 546.27L89.24 541.7L84.86 537.06L80.59 532.35L76.41 527.56L72.35 522.7L68.38 517.78L64.52 512.79L60.77 507.74L57.12 502.62L53.58 497.44L50.15 492.2L46.83 486.9L43.61 481.54L40.51 476.13L37.51 470.66L34.62 465.13L31.85 459.56L29.19 453.93L26.64 448.25L24.2 442.53L21.87 436.75L19.66 430.93L17.57 425.07L15.58 419.17L13.72 413.22L11.97 407.23L10.34 401.21L8.82 395.15L7.42 389.05L6.15 382.92L4.99 376.75L3.95 370.55L3.03 364.32L2.23 358.07L1.55 351.78L0.99 345.47L0.56 339.14L0.25 332.78L0.06 326.4L0 320L0.06 313.6L0.25 307.22L0.56 300.86L0.99 294.53L1.55 288.22L2.23 281.93L3.03 275.68L3.95 269.45L4.99 263.25L6.15 257.08L7.42 250.95L8.82 244.85L10.34 238.79L11.97 232.77L13.72 226.78L15.58 220.83L17.57 214.93L19.66 209.07L21.87 203.25L24.2 197.47L26.64 191.75L29.19 186.07L31.85 180.44L34.62 174.87L37.51 169.34L40.51 163.87L43.61 158.46L46.83 153.1L50.15 147.8L53.58 142.56L57.12 137.38L60.77 132.26L64.52 127.21L68.38 122.22L72.35 117.3L76.41 112.44L80.59 107.65L84.86 102.94L89.24 98.3L93.73 93.73L98.3 89.24L102.94 84.86L107.65 80.59L112.44 76.41L117.3 72.35L122.22 68.38L127.21 64.52L132.26 60.77L137.38 57.12L142.56 53.58L147.8 50.15L153.1 46.83L158.46 43.61L163.87 40.51L169.34 37.51L174.87 34.62L180.44 31.85L186.07 29.19L191.75 26.64L197.47 24.2L203.25 21.87L209.07 19.66L214.93 17.57L220.83 15.58L226.78 13.72L232.77 11.97L238.79 10.34L244.85 8.82L250.95 7.42L257.08 6.15L263.25 4.99L269.45 3.95L275.68 3.03L281.93 2.23L288.22 1.55L294.53 0.99L300.86 0.56L307.22 0.25L313.6 0.06L320 0L326.4 0.06L332.78 0.25ZM297.04 40.52L285.74 41.67L274.58 43.26L263.56 45.29L252.69 47.75L241.99 50.63L231.46 53.91L221.11 57.59L210.96 61.66L201 66.11L191.24 70.93L181.71 76.12L172.4 81.66L163.33 87.54L154.5 93.76L145.92 100.31L137.61 107.17L129.57 114.34L121.81 121.81L114.34 129.57L107.17 137.61L100.31 145.92L93.76 154.5L87.54 163.33L81.66 172.4L76.12 181.71L70.93 191.24L66.11 201L61.66 210.96L57.59 221.11L53.91 231.46L50.63 241.99L47.75 252.69L45.29 263.56L43.26 274.58L41.67 285.74L40.52 297.04L39.82 308.46L39.59 320L39.82 331.54L40.52 342.96L41.67 354.26L43.26 365.42L45.29 376.44L47.75 387.31L50.63 398.01L53.91 408.54L57.59 418.89L61.66 429.04L66.11 439L70.93 448.76L76.12 458.29L81.66 467.6L87.54 476.67L93.76 485.5L100.31 494.08L107.17 502.39L114.34 510.43L121.81 518.19L129.57 525.66L137.61 532.83L145.92 539.69L154.5 546.24L163.33 552.46L172.4 558.34L181.71 563.88L191.24 569.07L201 573.89L210.96 578.34L221.11 582.41L231.46 586.09L241.99 589.37L252.69 592.25L263.56 594.71L274.58 596.74L285.74 598.33L297.04 599.48L308.46 600.18L320 600.41L331.54 600.18L342.96 599.48L354.26 598.33L365.42 596.74L376.44 594.71L387.31 592.25L398.01 589.37L408.54 586.09L418.89 582.41L429.04 578.34L439 573.89L448.76 569.07L458.29 563.88L467.6 558.34L476.67 552.46L485.5 546.24L494.08 539.69L502.39 532.83L510.43 525.66L518.19 518.19L525.66 510.43L532.83 502.39L539.69 494.08L546.24 485.5L552.46 476.67L558.34 467.6L563.88 458.29L569.07 448.76L573.89 439L578.34 429.04L582.41 418.89L586.09 408.54L589.37 398.01L592.25 387.31L594.71 376.44L596.74 365.42L598.33 354.26L599.48 342.96L600.18 331.54L600.41 320L600.18 308.46L599.48 297.04L598.33 285.74L596.74 274.58L594.71 263.56L592.25 252.69L589.37 241.99L586.09 231.46L582.41 221.11L578.34 210.96L573.89 201L569.07 191.24L563.88 181.71L558.34 172.4L552.46 163.33L546.24 154.5L539.69 145.92L532.83 137.61L525.66 129.57L518.19 121.81L510.43 114.34L502.39 107.17L494.08 100.31L485.5 93.76L476.67 87.54L467.6 81.66L458.29 76.12L448.76 70.93L439 66.11L429.04 61.66L418.89 57.59L408.54 53.91L398.01 50.63L387.31 47.75L376.44 45.29L365.42 43.26L354.26 41.67L342.96 40.52L331.54 39.82L320 39.59L308.46 39.82L297.04 40.52Z" id="c54RW7wd8v"></path><path d="M332.78 0.25L339.14 0.56L345.47 0.99L351.78 1.55L358.07 2.23L364.32 3.03L370.55 3.95L376.75 4.99L382.92 6.15L389.05 7.42L395.15 8.82L401.21 10.34L407.23 11.97L413.22 13.72L419.17 15.58L425.07 17.57L430.93 19.66L436.75 21.87L442.53 24.2L448.25 26.64L453.93 29.19L459.56 31.85L465.13 34.62L470.66 37.51L476.13 40.51L481.54 43.61L486.9 46.83L492.2 50.15L497.44 53.58L502.62 57.12L507.74 60.77L512.79 64.52L517.78 68.38L522.7 72.35L527.56 76.41L532.35 80.59L537.06 84.86L541.7 89.24L546.27 93.73L550.76 98.3L555.14 102.94L559.41 107.65L563.59 112.44L567.65 117.3L571.62 122.22L575.48 127.21L579.23 132.26L582.88 137.38L586.42 142.56L589.85 147.8L593.17 153.1L596.39 158.46L599.49 163.87L602.49 169.34L605.38 174.87L608.15 180.44L610.81 186.07L613.36 191.75L615.8 197.47L618.13 203.25L620.34 209.07L622.43 214.93L624.42 220.83L626.28 226.78L628.03 232.77L629.66 238.79L631.18 244.85L632.58 250.95L633.85 257.08L635.01 263.25L636.05 269.45L636.97 275.68L637.77 281.93L638.45 288.22L639.01 294.53L639.44 300.86L639.75 307.22L639.94 313.6L640 320L639.94 326.4L639.75 332.78L639.44 339.14L639.01 345.47L638.45 351.78L637.77 358.07L636.97 364.32L636.05 370.55L635.01 376.75L633.85 382.92L632.58 389.05L631.18 395.15L629.66 401.21L628.03 407.23L626.28 413.22L624.42 419.17L622.43 425.07L620.34 430.93L618.13 436.75L615.8 442.53L613.36 448.25L610.81 453.93L608.15 459.56L605.38 465.13L602.49 470.66L599.49 476.13L596.39 481.54L593.17 486.9L589.85 492.2L586.42 497.44L582.88 502.62L579.23 507.74L575.48 512.79L571.62 517.78L567.65 522.7L563.59 527.56L559.41 532.35L555.14 537.06L550.76 541.7L546.27 546.27L541.7 550.76L537.06 555.14L532.35 559.41L527.56 563.59L522.7 567.65L517.78 571.62L512.79 575.48L507.74 579.23L502.62 582.88L497.44 586.42L492.2 589.85L486.9 593.17L481.54 596.39L476.13 599.49L470.66 602.49L465.13 605.38L459.56 608.15L453.93 610.81L448.25 613.36L442.53 615.8L436.75 618.13L430.93 620.34L425.07 622.43L419.17 624.42L413.22 626.28L407.23 628.03L401.21 629.66L395.15 631.18L389.05 632.58L382.92 633.85L376.75 635.01L370.55 636.05L364.32 636.97L358.07 637.77L351.78 638.45L345.47 639.01L339.14 639.44L332.78 639.75L326.4 639.94L320 640L313.6 639.94L307.22 639.75L300.86 639.44L294.53 639.01L288.22 638.45L281.93 637.77L275.68 636.97L269.45 636.05L263.25 635.01L257.08 633.85L250.95 632.58L244.85 631.18L238.79 629.66L232.77 628.03L226.78 626.28L220.83 624.42L214.93 622.43L209.07 620.34L203.25 618.13L197.47 615.8L191.75 613.36L186.07 610.81L180.44 608.15L174.87 605.38L169.34 602.49L163.87 599.49L158.46 596.39L153.1 593.17L147.8 589.85L142.56 586.42L137.38 582.88L132.26 579.23L127.21 575.48L122.22 571.62L117.3 567.65L112.44 563.59L107.65 559.41L102.94 555.14L98.3 550.76L93.73 546.27L89.24 541.7L84.86 537.06L80.59 532.35L76.41 527.56L72.35 522.7L68.38 517.78L64.52 512.79L60.77 507.74L57.12 502.62L53.58 497.44L50.15 492.2L46.83 486.9L43.61 481.54L40.51 476.13L37.51 470.66L34.62 465.13L31.85 459.56L29.19 453.93L26.64 448.25L24.2 442.53L21.87 436.75L19.66 430.93L17.57 425.07L15.58 419.17L13.72 413.22L11.97 407.23L10.34 401.21L8.82 395.15L7.42 389.05L6.15 382.92L4.99 376.75L3.95 370.55L3.03 364.32L2.23 358.07L1.55 351.78L0.99 345.47L0.56 339.14L0.25 332.78L0.06 326.4L0 320L0.06 313.6L0.25 307.22L0.56 300.86L0.99 294.53L1.55 288.22L2.23 281.93L3.03 275.68L3.95 269.45L4.99 263.25L6.15 257.08L7.42 250.95L8.82 244.85L10.34 238.79L11.97 232.77L13.72 226.78L15.58 220.83L17.57 214.93L19.66 209.07L21.87 203.25L24.2 197.47L26.64 191.75L29.19 186.07L31.85 180.44L34.62 174.87L37.51 169.34L40.51 163.87L43.61 158.46L46.83 153.1L50.15 147.8L53.58 142.56L57.12 137.38L60.77 132.26L64.52 127.21L68.38 122.22L72.35 117.3L76.41 112.44L80.59 107.65L84.86 102.94L89.24 98.3L93.73 93.73L98.3 89.24L102.94 84.86L107.65 80.59L112.44 76.41L117.3 72.35L122.22 68.38L127.21 64.52L132.26 60.77L137.38 57.12L142.56 53.58L147.8 50.15L153.1 46.83L158.46 43.61L163.87 40.51L169.34 37.51L174.87 34.62L180.44 31.85L186.07 29.19L191.75 26.64L197.47 24.2L203.25 21.87L209.07 19.66L214.93 17.57L220.83 15.58L226.78 13.72L232.77 11.97L238.79 10.34L244.85 8.82L250.95 7.42L257.08 6.15L263.25 4.99L269.45 3.95L275.68 3.03L281.93 2.23L288.22 1.55L294.53 0.99L300.86 0.56L307.22 0.25L313.6 0.06L320 0L326.4 0.06L332.78 0.25ZM297.04 40.52L285.74 41.67L274.58 43.26L263.56 45.29L252.69 47.75L241.99 50.63L231.46 53.91L221.11 57.59L210.96 61.66L201 66.11L191.24 70.93L181.71 76.12L172.4 81.66L163.33 87.54L154.5 93.76L145.92 100.31L137.61 107.17L129.57 114.34L121.81 121.81L114.34 129.57L107.17 137.61L100.31 145.92L93.76 154.5L87.54 163.33L81.66 172.4L76.12 181.71L70.93 191.24L66.11 201L61.66 210.96L57.59 221.11L53.91 231.46L50.63 241.99L47.75 252.69L45.29 263.56L43.26 274.58L41.67 285.74L40.52 297.04L39.82 308.46L39.59 320L39.82 331.54L40.52 342.96L41.67 354.26L43.26 365.42L45.29 376.44L47.75 387.31L50.63 398.01L53.91 408.54L57.59 418.89L61.66 429.04L66.11 439L70.93 448.76L76.12 458.29L81.66 467.6L87.54 476.67L93.76 485.5L100.31 494.08L107.17 502.39L114.34 510.43L121.81 518.19L129.57 525.66L137.61 532.83L145.92 539.69L154.5 546.24L163.33 552.46L172.4 558.34L181.71 563.88L191.24 569.07L201 573.89L210.96 578.34L221.11 582.41L231.46 586.09L241.99 589.37L252.69 592.25L263.56 594.71L274.58 596.74L285.74 598.33L297.04 599.48L308.46 600.18L320 600.41L331.54 600.18L342.96 599.48L354.26 598.33L365.42 596.74L376.44 594.71L387.31 592.25L398.01 589.37L408.54 586.09L418.89 582.41L429.04 578.34L439 573.89L448.76 569.07L458.29 563.88L467.6 558.34L476.67 552.46L485.5 546.24L494.08 539.69L502.39 532.83L510.43 525.66L518.19 518.19L525.66 510.43L532.83 502.39L539.69 494.08L546.24 485.5L552.46 476.67L558.34 467.6L563.88 458.29L569.07 448.76L573.89 439L578.34 429.04L582.41 418.89L586.09 408.54L589.37 398.01L592.25 387.31L594.71 376.44L596.74 365.42L598.33 354.26L599.48 342.96L600.18 331.54L600.41 320L600.18 308.46L599.48 297.04L598.33 285.74L596.74 274.58L594.71 263.56L592.25 252.69L589.37 241.99L586.09 231.46L582.41 221.11L578.34 210.96L573.89 201L569.07 191.24L563.88 181.71L558.34 172.4L552.46 163.33L546.24 154.5L539.69 145.92L532.83 137.61L525.66 129.57L518.19 121.81L510.43 114.34L502.39 107.17L494.08 100.31L485.5 93.76L476.67 87.54L467.6 81.66L458.29 76.12L448.76 70.93L439 66.11L429.04 61.66L418.89 57.59L408.54 53.91L398.01 50.63L387.31 47.75L376.44 45.29L365.42 43.26L354.26 41.67L342.96 40.52L331.54 39.82L320 39.59L308.46 39.82L297.04 40.52Z" id="b9CEqjd4A"></path><path d="M254.98 461.08L283.02 489.02L451.49 320L283.02 150.98L254.98 178.92L395.6 320L254.98 461.08Z" id="b2uf1MxDEx"></path><path d="M254.98 461.08L283.02 489.02L451.49 320L283.02 150.98L254.98 178.92L395.6 320L254.98 461.08Z" id="a18tdrYoOv"></path></defs><g><g><g><use xlink:href="#c54RW7wd8v" opacity="1" fill="#00008b" fill-opacity="1"></use><g><use xlink:href="#c54RW7wd8v" opacity="1" fill-opacity="0" stroke="#000000" stroke-width="1" stroke-opacity="0"></use></g></g><g><use xlink:href="#b9CEqjd4A" opacity="1" fill="#000000" fill-opacity="0"></use><g><use xlink:href="#b9CEqjd4A" opacity="1" fill-opacity="0" stroke="#000000" stroke-width="1" stroke-opacity="0"></use></g></g><g><use xlink:href="#b2uf1MxDEx" opacity="1" fill="#00008b" fill-opacity="1"></use><g><use xlink:href="#b2uf1MxDEx" opacity="1" fill-opacity="0" stroke="#000000" stroke-width="1" stroke-opacity="0"></use></g></g><g><use xlink:href="#a18tdrYoOv" opacity="1" fill="#000000" fill-opacity="0"></use><g><use xlink:href="#a18tdrYoOv" opacity="1" fill-opacity="0" stroke="#000000" stroke-width="1" stroke-opacity="0"></use></g></g></g></g></svg>