<?xml version="1.0" encoding="UTF-8" standalone="no"?>
<!DOCTYPE svg PUBLIC "-//W3C//DTD SVG 1.1//EN" "http://www.w3.org/Graphics/SVG/1.1/DTD/svg11.dtd">
<svg version="1.1" xmlns="http://www.w3.org/2000/svg" xmlns:xlink="http://www.w3.org/1999/xlink" preserveAspectRatio="xMidYMid meet" viewBox="0 0 640 640" width="640" height="640"><defs><path d="M232.04 507.1C199.86 507.1 173.76 533.19 173.76 565.38C173.76 597.56 199.86 623.66 232.04 623.66C264.23 623.66 290.32 597.56 290.32 565.38C290.32 533.19 264.23 507.1 232.04 507.1Z" id="d1PlU5pyhL"></path><path d="M522.8 507.1C490.61 507.1 464.52 533.19 464.52 565.38C464.52 597.56 490.61 623.66 522.8 623.66C554.98 623.66 581.08 597.56 581.08 565.38C581.08 533.19 554.98 507.1 522.8 507.1Z" id="jAvabCs6D"></path><path d="M639.35 158.06L581.08 449.03L173.76 449.03L98.28 70.97L-0.65 70.97L-0.65 12.69L144.73 12.69L173.76 158.06L639.35 158.06ZM220.22 390.75L534.62 390.75L569.46 216.13L185.38 216.13L220.22 390.75Z" id="j4IAeiok3O"></path></defs><g><g><g><use xlink:href="#d1PlU5pyhL" opacity="1" fill="#ffffff" fill-opacity="1"></use><g><use xlink:href="#d1PlU5pyhL" opacity="1" fill-opacity="0" stroke="#000000" stroke-width="1" stroke-opacity="0"></use></g></g><g><use xlink:href="#jAvabCs6D" opacity="1" fill="#ffffff" fill-opacity="1"></use><g><use xlink:href="#jAvabCs6D" opacity="1" fill-opacity="0" stroke="#000000" stroke-width="1" stroke-opacity="0"></use></g></g><g><use xlink:href="#j4IAeiok3O" opacity="1" fill="#ffffff" fill-opacity="1"></use><g><use xlink:href="#j4IAeiok3O" opacity="1" fill-opacity="0" stroke="#000000" stroke-width="1" stroke-opacity="0"></use></g></g></g></g></svg>