<?xml version="1.0" encoding="UTF-8" standalone="no"?>
<!DOCTYPE svg PUBLIC "-//W3C//DTD SVG 1.1//EN" "http://www.w3.org/Graphics/SVG/1.1/DTD/svg11.dtd">
<svg version="1.1" xmlns="http://www.w3.org/2000/svg" xmlns:xlink="http://www.w3.org/1999/xlink" preserveAspectRatio="xMidYMid meet" viewBox="0 0 640 640" width="640" height="640"><defs><path d="M6.6 319.81C6.6 323.7 7.54 326.11 10.35 329.06C14.1 333.35 99.48 392.05 103.23 393.12C104.84 393.53 441.52 217.41 507.6 181.62C512.83 178.67 517.25 176.53 517.25 176.8C517.25 177.2 438.58 236.18 342.34 307.88C330.68 316.59 272.38 360.1 167.43 438.43C167.67 471.08 167.81 489.22 167.83 492.85C168.1 544.32 168.24 547.53 170.65 550.21C172.12 551.82 174.8 553.03 176.68 553.03C178.96 553.03 193.57 544.05 219.3 526.89C240.88 512.55 258.84 500.75 259.24 500.75C259.51 500.75 277.47 512.82 299.05 527.56C334.71 551.81 338.86 554.36 343.96 554.36C348.38 554.36 350.52 553.55 353.61 550.61C355.75 548.6 368.22 529.16 381.35 507.45C401.32 474.21 537.36 249.84 612.68 125.86C624.48 106.42 633.86 89.54 633.59 88.33C633.32 86.72 631.85 85.78 629.17 85.65C626.89 85.53 602.64 93.7 572.88 104.55C544.19 115.14 406.68 164.87 267.29 215.13C-10.29 315.39 6.6 308.69 6.6 319.81Z" id="c1k1mVIywN"></path><path d="M6.6 319.81C6.6 323.7 7.54 326.11 10.35 329.06C14.1 333.35 99.48 392.05 103.23 393.12C104.84 393.53 441.52 217.41 507.6 181.62C512.83 178.67 517.25 176.53 517.25 176.8C517.25 177.2 438.58 236.18 342.34 307.88C330.68 316.59 272.38 360.1 167.43 438.43C167.67 471.08 167.81 489.22 167.83 492.85C168.1 544.32 168.24 547.53 170.65 550.21C172.12 551.82 174.8 553.03 176.68 553.03C178.96 553.03 193.57 544.05 219.3 526.89C240.88 512.55 258.84 500.75 259.24 500.75C259.51 500.75 277.47 512.82 299.05 527.56C334.71 551.81 338.86 554.36 343.96 554.36C348.38 554.36 350.52 553.55 353.61 550.61C355.75 548.6 368.22 529.16 381.35 507.45C401.32 474.21 537.36 249.84 612.68 125.86C624.48 106.42 633.86 89.54 633.59 88.33C633.32 86.72 631.85 85.78 629.17 85.65C626.89 85.53 602.64 93.7 572.88 104.55C544.19 115.14 406.68 164.87 267.29 215.13C-10.29 315.39 6.6 308.69 6.6 319.81Z" id="b3HA8tg9E"></path></defs><g><g><g><use xlink:href="#c1k1mVIywN" opacity="1" fill="#020717" fill-opacity="1"></use><g><use xlink:href="#c1k1mVIywN" opacity="1" fill-opacity="0" stroke="#000000" stroke-width="1" stroke-opacity="0"></use></g></g><g><use xlink:href="#b3HA8tg9E" opacity="1" fill="#000000" fill-opacity="0"></use><g><use xlink:href="#b3HA8tg9E" opacity="1" fill-opacity="0" stroke="#000000" stroke-width="1" stroke-opacity="0"></use></g></g></g></g></svg>